<svg width="600" height="166.48" version="1.1" viewBox="0 0 158.75 44.046934" xmlns="http://www.w3.org/2000/svg">
 <g fill="#e22112">
  <path d="m93.351 33.704c-2.0993 2.8624-4.6624 4.313-7.6194 4.313-6.75 0-8.1668-5.8518-8.1668-10.762 0-7.899 1.9166-11.904 5.697-11.904 1.2917 0 2.4266 0.62624 2.8796 1.5546-0.87522 0.755-1.7423 2.3956-1.7423 3.8259 0 3.0488 2.1853 4.9424 5.7015 4.9424 3.2717 0 5.3859-2.288 5.3859-5.8284 0-3.7993-3.2843-8.2353-12.541-8.2353-10.081 0-16.595 6.389-16.595 16.277 0 9.6372 5.9905 15.39 16.024 15.39 5.9302 0 10.403-2.4694 13.674-7.55l0.22149-0.34396-2.649-2.0503z"/>
  <path d="m128.13 37.071v-24.9l-15.352 0.33586v3.463l0.26788 0.0153c3.726 0.13281 3.8655 1.2529 3.8655 2.5941v16.369c-1.7716 0.7469-2.3942 1.1062-4.1546 1.1062-2.4532 0-3.5216-1.5541-3.5216-4.6205v-19.261l-14.762 0.26922v3.4725l0.49839 8e-3c3.4031 0.0598 3.635 1.0485 3.635 2.6567v14.502c0 6.3597 3.1551 10.007 9.0286 10.007 3.364 0 6.3232-1.497 9.2757-4.453v4.4684h15.352v-3.9835l-0.47902-0.0257c-3.1713-0.19315-3.6544-0.58168-3.6544-2.0237"/>
  <path d="m153.41 11.809h4.241v10.038h-4.1838l-0.1337-0.20304c-3.2933-4.033-5.8816-5.8451-8.3947-5.8451-2.1232 0-3.6062 1.1404-3.6062 2.7918 0 2.229 2.2326 2.8629 6.1796 3.803 5.8348 1.3785 11.235 3.5418 11.235 10.002 0 6.2089-5.5138 10.711-13.112 10.711-1.6325 0-3.7088-0.4025-5.4043-0.93555-2.4307-0.7361-3.1866-0.24851-3.7678 0.9324h-3.612v-11.219h3.472l0.13056 0.28363c2.4699 4.0442 6.4277 6.9098 9.6251 6.9098 2.6036 0 3.924-0.88197 3.924-2.6522 0-2.1259-1.8283-3.3064-7.5253-4.8776-6.4142-1.7824-9.8889-3.7764-9.8889-9.2194 0-6.2778 5.245-10.497 13.05-10.497 1.4416 0 3.052 0.30299 4.4161 0.80634 2.1642 0.77661 2.8327 0.35117 3.355-0.82974"/>
  <path d="m25.41 13.919c-2.0552 5.2621-3.3469 5.5669-7.1201 5.5669h-0.57537v-15.352h2.9818c7.361 0 10.201 4.0267 12.867 11.644l0.08328 0.25886 4.1438-0.19133v-15.845h-37.79v3.7467l0.41014 0.0167c4.9231 0.19089 4.9042 0.7586 4.9042 2.2776v30.523c0 1.519 0.01891 2.0863-4.9042 2.2776l-0.41014 0.0167v4.246h23.619v-4.1217l-0.48443-0.0139c-5.367-0.17604-5.4201-0.56007-5.4201-2.4046v-12.945h0.57537c3.7102 0 4.8943 0.41644 7.1237 5.7987l0.1139 0.1063h3.4059v-15.942h-3.4126z"/>
  <path d="m49.108 12.379c-10.001 0-16.214 6.0914-16.214 15.897 0 10.023 5.9104 15.771 16.214 15.771 9.9623 0 16.152-6.14 16.152-16.024 0-9.7962-6.0382-15.644-16.152-15.644m0.25347 27.8c-3.8291 0-5.2535-3.26-5.2535-12.029 0-9.1218 1.0945-11.903 4.684-11.903 3.8295 0 5.2531 3.2253 5.2531 11.903 0 9.106-1.1377 12.029-4.6836 12.029"/>
 </g>
</svg>
