<svg width="161.65mm" height="24.139mm" version="1.1" viewBox="0 0 572.76287 85.530573" xmlns="http://www.w3.org/2000/svg">
 <g transform="translate(-16.975 -951.89)" fill-rule="evenodd">
  <path d="m16.975 955.16h14.356v80.962h-14.356z"/>
  <path d="m45.6 955.16v13.496h36.776l-45.244 67.466h68.213v-12.822h-43.511l45.013-68.141z"/>
  <path d="m148.78 955.16-39.424 80.963h15.211l7.5352-15.879h33.268l7.5352 15.879h15.922zm0 27.197 11.613 25.021h-22.889z"/>
  <path d="m188.42 955.16h14.927v50.797c1.1056 24.553 35.931 24.189 35.684-0.1421v-50.654h15.212v56.341c-6.1639 36.097-60.56 32.957-65.823 0.1421z"/>
  <path d="m267.15 955.16v80.963h14.367v-29.455h14.645l17.344 29.455h14.928l-18.766-33.152c20.778-9.9848 20.641-41.289-6.6289-47.811zm14.367 12.98h18.908c13.64 1.54 14.584 23.257 0.85351 26.088h-19.762z"/>
  <path d="m371.77 954.63-39.424 80.961h15.211l7.5352-15.877h33.268l7.5352 15.877h15.922zm0 27.197 11.613 25.019h-22.889z"/>
 </g>
 <g transform="translate(-16.975 -951.89)">
  <path d="m435.77 951.89v84.566h153.97v-84.566z" fill="#734a84" fill-rule="evenodd"/>
 </g>
 <g transform="translate(-16.975 -951.89)" fill="#fff" fill-rule="evenodd">
  <path d="m455.95 961.52h45.635l0.14217 10.525h-17.06v54.729h-11.871v-54.729h-16.989z"/>
  <path d="m509.83 961.52h11.989l17.723 40.868 18.861-40.868h12.131l-30.992 65.254z"/>
 </g>
</svg>
