<svg xmlns="http://www.w3.org/2000/svg" height="89.598" width="600" version="1.1" viewBox="0 0 158.75 23.706124">
 <g fill-rule="evenodd" transform="translate(-38.554 -182.34)">
  <g fill="#fff">
   <path d="m38.554 183.24h3.979v22.44h-3.979z"/>
   <path d="m46.488 183.24v3.7406h10.193l-12.54 18.699h18.906v-3.5537h-12.06l12.476-18.89z"/>
   <path d="m75.084 183.24-10.927 22.44h4.2159l2.0885-4.4011h9.2206l2.0885 4.4011h4.413zm0 7.5381 3.2188 6.9351h-6.3439z"/>
   <path d="m86.073 183.24h4.1374v14.079c0.30643 6.8052 9.9588 6.7042 9.8902-0.0394v-14.04h4.2162v15.616c-1.7084 10.005-16.785 9.1344-18.244 0.0394z"/>
   <path d="m107.89 183.24v22.44h3.9821v-8.1639h4.059l4.8071 8.1639h4.1375l-5.2012-9.1887c5.7591-2.7674 5.7211-11.444-1.8373-13.251zm3.9821 3.5977h5.2407c3.7805 0.42683 4.0423 6.4459 0.23656 7.2307h-5.4773z"/>
   <path d="m136.89 183.1-10.927 22.44h4.2159l2.0885-4.4006h9.2206l2.0885 4.4006h4.413zm0 7.5381 3.2188 6.9345h-6.344z"/>
  </g>
  <path d="m154.63 182.34v23.439h42.676v-23.439z" fill="#734a84"/>
  <path d="m160.22 185.01h12.648l0.0394 2.9172h-4.7284v15.169h-3.2902v-15.169h-4.7087z" fill="#fff"/>
  <path d="m175.16 185.01h3.323l4.9123 11.327 5.2275-11.327h3.3624l-8.5899 18.086z" fill="#fff"/>
 </g>
</svg>
