<svg width="174.62mm" height="70.011mm" version="1.1" viewBox="0 0 174.625 70.011002" xmlns="http://www.w3.org/2000/svg">
 <defs>
  <clipPath id="clipPath5343">
   <path d="m610.3 588.47h23.811v10.501h-23.811z"/>
  </clipPath>
 </defs>
 <g transform="translate(495.75 244.11)">
  <path d="m-495.75-174.1h174.62v-70.011h-174.62z" fill="#181a19" stroke-width="1.0488"/>
  <g transform="matrix(6.6671 0 0 -6.6671 -4570.6 3749.3)">
   <g clip-path="url(#clipPath5343)">
    <g transform="translate(612.46,596.82)">
     <path d="m0 0h0.471v-0.246c0.13 0.174 0.337 0.282 0.587 0.282 0.449 0 0.757-0.326 0.757-0.772v-1.13h-0.471v1.047c0 0.25-0.181 0.428-0.435 0.428-0.253 0-0.438-0.178-0.438-0.428v-1.047h-0.471z" fill="#fff"/>
    </g>
    <g transform="translate(615.54,595.35)">
     <path d="m0 0c0.29 0 0.511 0.232 0.511 0.54 0 0.304-0.221 0.536-0.511 0.536s-0.507-0.232-0.507-0.536c0-0.308 0.217-0.54 0.507-0.54m0 1.507c0.565 0 0.996-0.42 0.996-0.967 0-0.551-0.431-0.971-0.996-0.971s-0.996 0.42-0.996 0.971c0 0.547 0.431 0.967 0.996 0.967" fill="#fff"/>
    </g>
    <g transform="translate(616.52,596.82)">
     <path d="m0 0h0.507l0.515-1.373 0.518 1.373h0.474l-0.742-1.866h-0.529z" fill="#fff"/>
    </g>
    <g transform="translate(619.53,595.35)">
     <path d="m0 0c0.29 0 0.511 0.232 0.511 0.54 0 0.304-0.221 0.536-0.511 0.536s-0.507-0.232-0.507-0.536c0-0.308 0.217-0.54 0.507-0.54m0.511-0.163c-0.149-0.167-0.355-0.268-0.605-0.268-0.511 0-0.902 0.42-0.902 0.971 0 0.547 0.391 0.967 0.902 0.967 0.25 0 0.456-0.101 0.605-0.272v0.236h0.471v-1.866h-0.471z" fill="#fff"/>
    </g>
    <g transform="translate(629.33,591.38)">
     <path d="m0 0 1.462 1.215c0.13 0.111 0.24 0.256 0.24 0.457 0 0.191-0.125 0.357-0.421 0.357-0.246 0-0.422-0.146-0.422-0.462l-0.884 0.1c0.05 0.754 0.547 1.145 1.306 1.145 0.768 0 1.305-0.416 1.305-1.115 0-0.456-0.266-0.833-0.587-1.084l-0.764-0.613h1.376v-0.753h-2.611z" fill="#50c5d5"/>
    </g>
    <g transform="translate(613.21,591.74)">
     <path d="m0 0c0.055-0.251 0.216-0.382 0.522-0.382 0.262 0 0.427 0.101 0.427 0.277 0 0.602-1.738 0.195-1.738 1.476 0 0.618 0.568 1.08 1.286 1.08 0.733 0 1.226-0.397 1.311-0.989l-0.864-0.176c-0.055 0.261-0.206 0.381-0.477 0.381-0.231 0-0.371-0.1-0.371-0.271 0-0.552 1.737-0.15 1.737-1.476 0-0.618-0.583-1.085-1.336-1.085-0.758 0-1.286 0.412-1.361 0.994z" fill="#fff"/>
    </g>
    <g transform="translate(617.15,592.46)">
     <path d="m0 0c0.291 0 0.477 0.196 0.477 0.462 0 0.271-0.186 0.467-0.477 0.467h-0.698v-0.929zm-1.552 1.682h1.552c0.834 0 1.361-0.522 1.361-1.23s-0.527-1.205-1.361-1.205h-0.698v-1.08h-0.854z" fill="#fff"/>
    </g>
    <g transform="translate(620.69,591.36)">
     <path d="m0 0c0.553 0 0.974 0.447 0.974 1.025 0 0.577-0.421 1.024-0.974 1.024s-0.974-0.447-0.974-1.024c0-0.578 0.421-1.025 0.974-1.025m0 2.832c1.05 0 1.858-0.788 1.858-1.807 0-1.02-0.808-1.809-1.858-1.809s-1.858 0.789-1.858 1.809c0 1.019 0.808 1.807 1.858 1.807" fill="#fff"/>
    </g>
    <g transform="translate(624.61,592.56)">
     <path d="m0 0c0.256 0 0.422 0.176 0.422 0.412 0 0.241-0.166 0.417-0.422 0.417h-0.703v-0.829zm-0.357-0.778h-0.346v-1.155h-0.854v3.515h1.557c0.799 0 1.306-0.502 1.306-1.18 0-0.492-0.271-0.889-0.718-1.075l0.818-1.26h-1.014z" fill="#fff"/>
    </g>
    <g transform="translate(627.15,593.39)">
     <path d="m0 0h-1.029v0.753h2.912v-0.753h-1.029v-2.762h-0.854z" fill="#fff"/>
    </g>
   </g>
  </g>
  <path d="m-354.44-212.06h3.014v4.88h5.331v-4.88h3.014v12.43h-3.014v-4.89h-5.331v4.89h-3.014z" fill="#fff"/>
  <path d="m-335.52-202.3c2.116 0 3.514-1.49 3.514-3.55 0-2.08-1.398-3.55-3.514-3.55h-1.88v7.1zm-4.903-9.76h5.166c3.696 0 6.375 2.7 6.375 6.21s-2.679 6.21-6.375 6.21h-5.166z" fill="#fff"/>
 </g>
</svg>
